# xmcd CD database file
#
# Track frame offsets:
#	150
#	8025
#	24927
#	35991
#	64811
#	76941
#	92288
#	106544
#	125249
#	139655
#	160278
#	171883
#	184146
#
# Disc length: 2551 seconds
#
# Revision: 0
# Processed by: cddbd v1.5.1PL0 Copyright (c) Steve Scherf et al.
# Submitted via: CDex 1.50
#
DISCID=9f09f50d
DTITLE=Yuhki Kuramoto - Reminiscence
DYEAR=1900
DGENRE=New Age
TTITLE0=prologue2
TTITLE1=romance
TTITLE2=lake louise
TTITLE3=a marge on the water
TTITLE4=ripples
TTITLE5=meditation
TTITLE6=on the shore
TTITLE7=sighing wind
TTITLE8=sonnet of the woods
TTITLE9=last summer
TTITLE10=green hills
TTITLE11=paris in winter
TTITLE12=bell song
EXTD=
EXTT0=
EXTT1=
EXTT2=
EXTT3=
EXTT4=
EXTT5=
EXTT6=
EXTT7=
EXTT8=
EXTT9=
EXTT10=
EXTT11=
EXTT12=
PLAYORDER=
